<svg width="20" height="20" viewBox="0 0 20 20" fill="none" xmlns="http://www.w3.org/2000/svg">
<circle cx="10" cy="10" r="10" fill="#E95454"/>
<path d="M13.7927 12.8165C14.0691 13.0932 14.0691 13.5235 13.7927 13.8002C13.6545 13.9385 13.4856 14 13.3013 14C13.1171 14 12.9482 13.9385 12.81 13.8002L10 10.9875L7.19002 13.8002C7.05182 13.9385 6.88292 14 6.69866 14C6.5144 14 6.34549 13.9385 6.20729 13.8002C5.9309 13.5235 5.9309 13.0932 6.20729 12.8165L9.01727 10.0038L6.20729 7.19116C5.9309 6.91451 5.9309 6.48415 6.20729 6.20749C6.48369 5.93084 6.91363 5.93084 7.19002 6.20749L10 9.02017L12.81 6.20749C13.0864 5.93084 13.5163 5.93084 13.7927 6.20749C14.0691 6.48415 14.0691 6.91451 13.7927 7.19116L10.9827 10.0038L13.7927 12.8165Z" fill="white"/>
</svg>
