<svg width="60" height="60" viewBox="0 0 60 60" fill="none" xmlns="http://www.w3.org/2000/svg">
<rect width="60" height="60" rx="10" fill="#45A5EE"/>
<path d="M40.8421 21.3158H36.1053V19.7368C36.1053 18.4806 35.6062 17.2757 34.7179 16.3874C33.8295 15.4991 32.6247 15 31.3684 15H28.2105C26.9542 15 25.7494 15.4991 24.8611 16.3874C23.9727 17.2757 23.4737 18.4806 23.4737 19.7368V21.3158H18.7368C17.4806 21.3158 16.2757 21.8148 15.3874 22.7032C14.4991 23.5915 14 24.7963 14 26.0526V40.2632C14 41.5194 14.4991 42.7243 15.3874 43.6126C16.2757 44.5009 17.4806 45 18.7368 45H40.8421C42.0984 45 43.3032 44.5009 44.1916 43.6126C45.0799 42.7243 45.5789 41.5194 45.5789 40.2632V26.0526C45.5789 24.7963 45.0799 23.5915 44.1916 22.7032C43.3032 21.8148 42.0984 21.3158 40.8421 21.3158ZM26.6316 19.7368C26.6316 19.3181 26.7979 18.9165 27.094 18.6204C27.3902 18.3242 27.7918 18.1579 28.2105 18.1579H31.3684C31.7872 18.1579 32.1888 18.3242 32.4849 18.6204C32.781 18.9165 32.9474 19.3181 32.9474 19.7368V21.3158H26.6316V19.7368ZM42.4211 40.2632C42.4211 40.6819 42.2547 41.0835 41.9586 41.3796C41.6625 41.6758 41.2609 41.8421 40.8421 41.8421H18.7368C18.3181 41.8421 17.9165 41.6758 17.6204 41.3796C17.3242 41.0835 17.1579 40.6819 17.1579 40.2632V31.5789C21.1783 33.1739 25.4642 33.9936 29.7895 33.9947C34.1146 33.9921 38.4002 33.1724 42.4211 31.5789V40.2632ZM42.4211 28.1211C38.4396 29.8702 34.1382 30.7733 29.7895 30.7733C25.4407 30.7733 21.1394 29.8702 17.1579 28.1211V26.0526C17.1579 25.6339 17.3242 25.2323 17.6204 24.9361C17.9165 24.64 18.3181 24.4737 18.7368 24.4737H40.8421C41.2609 24.4737 41.6625 24.64 41.9586 24.9361C42.2547 25.2323 42.4211 25.6339 42.4211 26.0526V28.1211Z" fill="white"/>
<path d="M40.8421 21.3158H36.1053V19.7368C36.1053 18.4806 35.6062 17.2757 34.7179 16.3874C33.8295 15.4991 32.6247 15 31.3684 15H28.2105C26.9542 15 25.7494 15.4991 24.8611 16.3874C23.9727 17.2757 23.4737 18.4806 23.4737 19.7368V21.3158H18.7368C17.4806 21.3158 16.2757 21.8148 15.3874 22.7032C14.4991 23.5915 14 24.7963 14 26.0526V40.2632C14 41.5194 14.4991 42.7243 15.3874 43.6126C16.2757 44.5009 17.4806 45 18.7368 45H40.8421C42.0984 45 43.3032 44.5009 44.1916 43.6126C45.0799 42.7243 45.5789 41.5194 45.5789 40.2632V26.0526C45.5789 24.7963 45.0799 23.5915 44.1916 22.7032C43.3032 21.8148 42.0984 21.3158 40.8421 21.3158ZM26.6316 19.7368C26.6316 19.3181 26.7979 18.9165 27.094 18.6204C27.3902 18.3242 27.7918 18.1579 28.2105 18.1579H31.3684C31.7872 18.1579 32.1888 18.3242 32.4849 18.6204C32.781 18.9165 32.9474 19.3181 32.9474 19.7368V21.3158H26.6316V19.7368ZM42.4211 40.2632C42.4211 40.6819 42.2547 41.0835 41.9586 41.3796C41.6625 41.6758 41.2609 41.8421 40.8421 41.8421H18.7368C18.3181 41.8421 17.9165 41.6758 17.6204 41.3796C17.3242 41.0835 17.1579 40.6819 17.1579 40.2632V31.5789C21.1783 33.1739 25.4642 33.9936 29.7895 33.9947C34.1146 33.9921 38.4002 33.1724 42.4211 31.5789V40.2632ZM42.4211 28.1211C38.4396 29.8702 34.1382 30.7733 29.7895 30.7733C25.4407 30.7733 21.1394 29.8702 17.1579 28.1211V26.0526C17.1579 25.6339 17.3242 25.2323 17.6204 24.9361C17.9165 24.64 18.3181 24.4737 18.7368 24.4737H40.8421C41.2609 24.4737 41.6625 24.64 41.9586 24.9361C42.2547 25.2323 42.4211 25.6339 42.4211 26.0526V28.1211Z" fill="white"/>
</svg>
