<svg width="60" height="60" viewBox="0 0 60 60" fill="none" xmlns="http://www.w3.org/2000/svg">
<rect width="60" height="60" rx="10" fill="#EC5780"/>
<path d="M23.25 36C23.8467 36 24.419 35.7629 24.841 35.341C25.2629 34.919 25.5 34.3467 25.5 33.75C25.5073 33.6752 25.5073 33.5998 25.5 33.525L29.685 29.34H30.375L32.79 31.755V31.875C32.79 32.4717 33.0271 33.044 33.449 33.466C33.871 33.8879 34.4433 34.125 35.04 34.125C35.6367 34.125 36.209 33.8879 36.631 33.466C37.0529 33.044 37.29 32.4717 37.29 31.875V31.755L42.75 26.25C43.195 26.25 43.63 26.118 44 25.8708C44.37 25.6236 44.6584 25.2722 44.8287 24.861C44.999 24.4499 45.0436 23.9975 44.9568 23.561C44.87 23.1246 44.6557 22.7237 44.341 22.409C44.0263 22.0943 43.6254 21.88 43.189 21.7932C42.7525 21.7064 42.3001 21.751 41.889 21.9213C41.4778 22.0916 41.1264 22.38 40.8792 22.75C40.632 23.12 40.5 23.555 40.5 24C40.4927 24.0748 40.4927 24.1502 40.5 24.225L35.085 29.64H34.845L32.25 27C32.25 26.4033 32.0129 25.831 31.591 25.409C31.169 24.9871 30.5967 24.75 30 24.75C29.4033 24.75 28.831 24.9871 28.409 25.409C27.9871 25.831 27.75 26.4033 27.75 27L23.25 31.5C22.6533 31.5 22.081 31.7371 21.659 32.159C21.2371 32.581 21 33.1533 21 33.75C21 34.3467 21.2371 34.919 21.659 35.341C22.081 35.7629 22.6533 36 23.25 36ZM43.5 42H18V16.5C18 16.1022 17.842 15.7206 17.5607 15.4393C17.2794 15.158 16.8978 15 16.5 15C16.1022 15 15.7206 15.158 15.4393 15.4393C15.158 15.7206 15 16.1022 15 16.5V43.5C15 43.8978 15.158 44.2794 15.4393 44.5607C15.7206 44.842 16.1022 45 16.5 45H43.5C43.8978 45 44.2794 44.842 44.5607 44.5607C44.842 44.2794 45 43.8978 45 43.5C45 43.1022 44.842 42.7206 44.5607 42.4393C44.2794 42.158 43.8978 42 43.5 42Z" fill="white"/>
</svg>
