<svg width="30" height="30" viewBox="0 0 30 30" fill="none" xmlns="http://www.w3.org/2000/svg">
<circle opacity="0.4" cx="15" cy="15" r="15" fill="white"/>
<path d="M17.3934 9H12.8152C10.7084 9 9 10.7 9 12.7963V17.3519C9 19.4482 10.7084 21.1482 12.8152 21.1482H17.3934C19.5001 21.1482 21.2086 19.4482 21.2086 17.3519V12.7963C21.2086 10.7 19.5001 9 17.3934 9ZM20.064 17.3519C20.064 18.8172 18.8661 20.0093 17.3934 20.0093H12.8152C11.3425 20.0093 10.1446 18.8172 10.1446 17.3519V12.7963C10.1446 11.3309 11.3425 10.1389 12.8152 10.1389H17.3934C18.8661 10.1389 20.064 11.3309 20.064 12.7963V17.3519Z" fill="white"/>
<path d="M15.1105 12.0439C13.4249 12.0439 12.0583 13.4038 12.0583 15.081C12.0583 16.7582 13.4249 18.118 15.1105 18.118C16.796 18.118 18.1626 16.7582 18.1626 15.081C18.1626 13.4038 16.796 12.0439 15.1105 12.0439ZM15.1105 16.9791C14.059 16.9791 13.2029 16.1272 13.2029 15.081C13.2029 14.034 14.059 13.1828 15.1105 13.1828C16.162 13.1828 17.0181 14.034 17.0181 15.081C17.0181 16.1272 16.162 16.9791 15.1105 16.9791Z" fill="white"/>
<path d="M18.377 12.2235C18.6022 12.2235 18.7847 12.0419 18.7847 11.8178C18.7847 11.5938 18.6022 11.4121 18.377 11.4121C18.1518 11.4121 17.9692 11.5938 17.9692 11.8178C17.9692 12.0419 18.1518 12.2235 18.377 12.2235Z" fill="white"/>
</svg>
