<svg width="30" height="30" viewBox="0 0 30 30" fill="none" xmlns="http://www.w3.org/2000/svg">
<circle opacity="0.4" cx="15" cy="15" r="15" fill="white"/>
<path d="M20.3165 20.2574V20.257H20.3193V16.1236C20.3193 14.1016 19.8818 12.5439 17.5062 12.5439C16.3641 12.5439 15.5977 13.1676 15.2848 13.7588H15.2518V12.7327H12.9993V20.257H15.3447V16.5312C15.3447 15.5503 15.5316 14.6017 16.7525 14.6017C17.9554 14.6017 17.9734 15.7212 17.9734 16.5942V20.2574H20.3165Z" fill="white"/>
<path d="M9.17969 12.7461H11.528V20.2703H9.17969V12.7461Z" fill="white"/>
<path d="M10.3601 9C9.60925 9 9 9.60624 9 10.3534C9 11.1005 9.60925 11.7194 10.3601 11.7194C11.1109 11.7194 11.7202 11.1005 11.7202 10.3534C11.7197 9.60624 11.1104 9 10.3601 9V9Z" fill="white"/>
</svg>
