<svg width="180" height="45" viewBox="0 0 180 45" fill="none" xmlns="http://www.w3.org/2000/svg">
<path d="M66.6131 26.8506C66.6131 27.8636 66.3684 28.744 65.879 29.492C65.3896 30.24 64.6749 30.8166 63.7349 31.2218C62.8026 31.627 61.6684 31.8295 60.3322 31.8295C59.7418 31.8295 59.1631 31.7906 58.596 31.7127C58.0366 31.6348 57.4967 31.5218 56.9762 31.3737C56.4635 31.2179 55.9741 31.027 55.5079 30.801V27.435C56.3159 27.7934 57.1549 28.1168 58.025 28.4051C58.895 28.6934 59.7574 28.8375 60.6119 28.8375C61.2023 28.8375 61.6762 28.7596 62.0336 28.6038C62.3987 28.4479 62.6628 28.2337 62.826 27.961C62.9891 27.6882 63.0707 27.3766 63.0707 27.0259C63.0707 26.5974 62.9269 26.2312 62.6395 25.9273C62.3521 25.6234 61.9559 25.339 61.4509 25.0741C60.9537 24.8092 60.3905 24.5248 59.7612 24.2209C59.365 24.0339 58.9339 23.808 58.4678 23.543C58.0017 23.2703 57.5588 22.9392 57.1393 22.5496C56.7198 22.16 56.3741 21.6886 56.1022 21.1354C55.8381 20.5744 55.706 19.9043 55.706 19.1251C55.706 18.1044 55.9391 17.2318 56.4052 16.5071C56.8713 15.7825 57.5355 15.2293 58.3979 14.8475C59.2679 14.4579 60.2934 14.2631 61.4742 14.2631C62.3598 14.2631 63.2027 14.3683 64.0029 14.5787C64.8108 14.7813 65.6537 15.0773 66.5316 15.4669L65.3663 18.2836C64.5817 17.9642 63.8786 17.7187 63.2571 17.5473C62.6356 17.3681 62.0025 17.2785 61.3577 17.2785C60.9071 17.2785 60.5226 17.3525 60.2041 17.5006C59.8855 17.6408 59.6447 17.8434 59.4816 18.1083C59.3184 18.3654 59.2369 18.6654 59.2369 19.0083C59.2369 19.4134 59.3534 19.7563 59.5864 20.0368C59.8273 20.3095 60.1846 20.5744 60.6585 20.8315C61.1402 21.0887 61.7384 21.3886 62.4531 21.7315C63.3231 22.1444 64.065 22.5769 64.6788 23.0288C65.3003 23.4729 65.778 23.9989 66.1121 24.6066C66.4461 25.2066 66.6131 25.9546 66.6131 26.8506Z" fill="white"/>
<path d="M72.4983 13.4099V21.5445C72.4983 22.0353 72.4789 22.5262 72.4401 23.0171C72.4012 23.508 72.3585 23.9989 72.3119 24.4897H72.3585C72.5993 24.1469 72.844 23.808 73.0926 23.4729C73.349 23.1379 73.6209 22.8145 73.9083 22.5029L77.5557 18.5291H81.5643L76.3904 24.1976L81.8789 31.5958H77.7771L74.0249 26.3013L72.4983 27.5285V31.5958H68.9442V13.4099H72.4983Z" fill="white"/>
<path d="M81.4016 18.5291H85.2937L87.7524 25.8806C87.8301 26.1143 87.8962 26.352 87.9505 26.5935C88.0049 26.835 88.0515 27.0844 88.0904 27.3415C88.1292 27.5986 88.1603 27.8675 88.1836 28.148H88.2535C88.3001 27.7272 88.3623 27.3337 88.44 26.9675C88.5254 26.6013 88.6303 26.239 88.7546 25.8806L91.1667 18.5291H94.9772L89.4654 33.2671C89.1314 34.171 88.6963 34.9229 88.1603 35.5228C87.6243 36.1306 87.0067 36.5864 86.3075 36.8903C85.6161 37.1941 84.8547 37.3461 84.0235 37.3461C83.6195 37.3461 83.27 37.3227 82.9747 37.276C82.6795 37.237 82.4271 37.1941 82.2173 37.1474V34.319C82.3805 34.358 82.5863 34.393 82.8349 34.4242C83.0835 34.4554 83.3438 34.4709 83.6157 34.4709C84.1128 34.4709 84.5401 34.3657 84.8975 34.1554C85.2548 33.945 85.5539 33.6606 85.7948 33.3022C86.0356 32.9516 86.2259 32.5659 86.3657 32.1451L86.5755 31.5023L81.4016 18.5291Z" fill="white"/>
<path d="M103.869 31.5958L99.767 18.1901H99.6622C99.6777 18.5096 99.701 18.9927 99.7321 19.6394C99.7709 20.2783 99.8059 20.9601 99.837 21.6847C99.868 22.4094 99.8836 23.0639 99.8836 23.6482V31.5958H96.6557V14.5085H101.573L105.605 27.5753H105.675L109.952 14.5085H114.869V31.5958H111.502V23.508C111.502 22.9704 111.509 22.3509 111.525 21.6497C111.548 20.9484 111.575 20.2822 111.606 19.6511C111.637 19.0122 111.661 18.533 111.676 18.2135H111.571L107.178 31.5958H103.869Z" fill="white"/>
<path d="M123.784 18.2836C124.988 18.2836 126.025 18.5174 126.895 18.9849C127.766 19.4446 128.438 20.1147 128.911 20.9952C129.385 21.8756 129.622 22.9509 129.622 24.2209V25.9507H121.22C121.259 26.9558 121.558 27.7467 122.118 28.3233C122.685 28.8921 123.47 29.1765 124.472 29.1765C125.303 29.1765 126.064 29.0908 126.756 28.9193C127.447 28.7479 128.158 28.4908 128.888 28.148V30.9062C128.243 31.2257 127.567 31.4594 126.86 31.6075C126.161 31.7555 125.311 31.8295 124.309 31.8295C123.003 31.8295 121.846 31.588 120.836 31.1049C119.834 30.6218 119.045 29.8855 118.47 28.896C117.903 27.9064 117.62 26.6597 117.62 25.1559C117.62 23.6288 117.876 22.3587 118.389 21.3458C118.909 20.3251 119.632 19.5615 120.556 19.055C121.481 18.5408 122.557 18.2836 123.784 18.2836ZM123.807 20.8198C123.116 20.8198 122.541 21.0419 122.083 21.486C121.632 21.9302 121.372 22.6275 121.302 23.5781H126.29C126.282 23.0483 126.185 22.5769 125.998 22.1639C125.82 21.751 125.548 21.4237 125.182 21.1822C124.825 20.9406 124.367 20.8198 123.807 20.8198Z" fill="white"/>
<path d="M137.523 28.9895C137.912 28.9895 138.289 28.9505 138.654 28.8726C139.027 28.7947 139.396 28.6973 139.761 28.5804V31.2335C139.38 31.4049 138.906 31.5451 138.339 31.6542C137.78 31.7711 137.166 31.8295 136.498 31.8295C135.721 31.8295 135.022 31.7049 134.4 31.4555C133.787 31.1984 133.301 30.7582 132.944 30.1348C132.594 29.5037 132.419 28.6271 132.419 27.5051V21.2055H130.718V19.6978L132.676 18.5057L133.701 15.7474H135.974V18.5291H139.621V21.2055H135.974V27.5051C135.974 28.0038 136.113 28.3778 136.393 28.6271C136.68 28.8687 137.057 28.9895 137.523 28.9895Z" fill="white"/>
<path d="M149.2 18.2836C149.379 18.2836 149.585 18.2953 149.818 18.3187C150.058 18.3343 150.253 18.3577 150.4 18.3888L150.132 21.7315C150.016 21.6925 149.849 21.6652 149.631 21.6497C149.421 21.6263 149.239 21.6146 149.084 21.6146C148.625 21.6146 148.178 21.673 147.743 21.7899C147.316 21.9068 146.932 22.0977 146.59 22.3626C146.248 22.6197 145.976 22.9626 145.774 23.3911C145.58 23.8119 145.483 24.33 145.483 24.9456V31.5958H141.929V18.5291H144.62L145.145 20.7263H145.32C145.576 20.2822 145.895 19.877 146.275 19.5108C146.664 19.1368 147.103 18.8407 147.592 18.6226C148.089 18.3966 148.625 18.2836 149.2 18.2836Z" fill="white"/>
<path d="M155.843 18.5291V31.5958H152.289V18.5291H155.843ZM154.071 13.4099C154.6 13.4099 155.054 13.5346 155.435 13.7839C155.815 14.0255 156.006 14.4813 156.006 15.1514C156.006 15.8137 155.815 16.2734 155.435 16.5305C155.054 16.7798 154.6 16.9045 154.071 16.9045C153.535 16.9045 153.077 16.7798 152.696 16.5305C152.323 16.2734 152.137 15.8137 152.137 15.1514C152.137 14.4813 152.323 14.0255 152.696 13.7839C153.077 13.5346 153.535 13.4099 154.071 13.4099Z" fill="white"/>
<path d="M164.396 31.8295C163.107 31.8295 162.008 31.5958 161.099 31.1283C160.19 30.653 159.498 29.9206 159.024 28.931C158.55 27.9415 158.314 26.6753 158.314 25.1326C158.314 23.5353 158.582 22.234 159.118 21.2289C159.661 20.216 160.411 19.4719 161.367 18.9966C162.33 18.5213 163.445 18.2836 164.711 18.2836C165.612 18.2836 166.389 18.3732 167.042 18.5524C167.702 18.7239 168.277 18.9303 168.766 19.1719L167.717 21.9302C167.158 21.7042 166.638 21.5211 166.156 21.3808C165.674 21.2328 165.193 21.1588 164.711 21.1588C164.089 21.1588 163.573 21.3068 163.161 21.6029C162.749 21.8912 162.443 22.3275 162.241 22.9119C162.039 23.4963 161.938 24.2287 161.938 25.1092C161.938 25.9741 162.046 26.6909 162.264 27.2597C162.481 27.8285 162.796 28.2531 163.208 28.5336C163.619 28.8064 164.121 28.9427 164.711 28.9427C165.449 28.9427 166.105 28.8453 166.68 28.6505C167.255 28.4479 167.815 28.1674 168.358 27.809V30.8595C167.815 31.2023 167.244 31.4477 166.645 31.5958C166.055 31.7516 165.305 31.8295 164.396 31.8295Z" fill="white"/>
<path d="M180 27.7155C180 28.6038 179.79 29.3557 179.371 29.9712C178.959 30.579 178.341 31.0426 177.518 31.362C176.695 31.6737 175.669 31.8295 174.442 31.8295C173.533 31.8295 172.752 31.7711 172.099 31.6542C171.455 31.5374 170.802 31.3426 170.142 31.0699V28.1246C170.849 28.444 171.606 28.709 172.414 28.9193C173.23 29.1219 173.944 29.2232 174.558 29.2232C175.25 29.2232 175.743 29.1219 176.038 28.9193C176.341 28.709 176.493 28.4362 176.493 28.1012C176.493 27.883 176.43 27.6882 176.306 27.5168C176.19 27.3376 175.933 27.1389 175.537 26.9208C175.141 26.6948 174.519 26.4026 173.673 26.0442C172.857 25.7014 172.185 25.3546 171.657 25.004C171.136 24.6534 170.748 24.2404 170.491 23.7651C170.243 23.282 170.118 22.6704 170.118 21.9302C170.118 20.7224 170.585 19.8147 171.517 19.207C172.457 18.5914 173.711 18.2836 175.281 18.2836C176.089 18.2836 176.858 18.3654 177.588 18.5291C178.326 18.6927 179.083 18.9537 179.86 19.3121L178.788 21.8834C178.143 21.6029 177.534 21.3731 176.959 21.1938C176.392 21.0146 175.813 20.925 175.222 20.925C174.702 20.925 174.31 20.9952 174.045 21.1354C173.781 21.2757 173.649 21.4899 173.649 21.7782C173.649 21.9886 173.715 22.1756 173.847 22.3392C173.987 22.5029 174.251 22.686 174.64 22.8885C175.036 23.0833 175.615 23.3366 176.376 23.6482C177.114 23.9521 177.755 24.2716 178.299 24.6066C178.843 24.9339 179.262 25.3429 179.557 25.8338C179.852 26.3169 180 26.9441 180 27.7155Z" fill="white"/>
<path fill-rule="evenodd" clip-rule="evenodd" d="M22.4332 41.122C32.6874 41.122 41 32.7846 41 22.5C41 12.2153 32.6874 3.87793 22.4332 3.87793C12.1791 3.87793 3.86646 12.2153 3.86646 22.5C3.86646 32.7846 12.1791 41.122 22.4332 41.122ZM28.261 30.7469C28.8529 29.8359 29.1489 28.7635 29.1489 27.5298C29.1489 26.4384 28.9469 25.5273 28.5428 24.7966C28.1388 24.0564 27.561 23.4158 26.8093 22.8748C26.0671 22.3244 25.1698 21.7977 24.1174 21.2947C23.253 20.8772 22.5295 20.5118 21.947 20.1986C21.3739 19.8855 20.9417 19.5628 20.6504 19.2306C20.3685 18.889 20.2276 18.4714 20.2276 17.9779C20.2276 17.5604 20.3262 17.195 20.5235 16.8818C20.7209 16.5592 21.0121 16.3124 21.3973 16.1416C21.7826 15.9613 22.2477 15.8711 22.7926 15.8711C23.5725 15.8711 24.3382 15.9803 25.0899 16.1985C25.3414 16.2684 25.6039 16.3483 25.8775 16.4384C26.865 16.7634 27.961 16.3161 28.356 15.3544C28.7428 14.413 28.315 13.3226 27.3529 12.9906C26.8905 12.8311 26.4368 12.6951 25.9919 12.5828C25.0241 12.3266 24.0047 12.1984 22.9336 12.1984C21.5054 12.1984 20.2652 12.4357 19.2128 12.9102C18.1699 13.3752 17.3666 14.049 16.8028 14.9316C16.2391 15.8142 15.9572 16.8771 15.9572 18.1203C15.9572 19.0693 16.1169 19.8855 16.4364 20.5687C16.7652 21.2425 17.1833 21.8167 17.6907 22.2912C18.1981 22.7657 18.7336 23.169 19.2974 23.5012C19.8611 23.8239 20.3826 24.0991 20.8618 24.3268C21.6228 24.697 22.304 25.0433 22.9054 25.366C23.5161 25.6887 23.9953 26.0351 24.3429 26.4052C24.6906 26.7753 24.8644 27.2213 24.8644 27.7433C24.8644 28.1703 24.7657 28.55 24.5684 28.8821C24.3711 29.2143 24.0517 29.4752 23.6101 29.665C23.1779 29.8548 22.6047 29.9498 21.8906 29.9498C20.8571 29.9498 19.8142 29.7742 18.7618 29.423C18.6513 29.3862 18.5411 29.3488 18.4313 29.3109C17.1353 28.8641 15.7176 29.7885 15.7176 31.1594C15.7176 31.8826 16.1257 32.5544 16.8038 32.8058C17.0297 32.8896 17.2595 32.9672 17.4934 33.0388C18.1229 33.2191 18.7759 33.3567 19.4524 33.4516C20.1383 33.5465 20.8383 33.594 21.5524 33.594C23.1685 33.594 24.5402 33.3472 25.6677 32.8537C26.8046 32.3602 27.669 31.658 28.261 30.7469Z" fill="white"/>
</svg>
