<svg width="15" height="11" viewBox="0 0 15 11" fill="none" xmlns="http://www.w3.org/2000/svg">
<path d="M0.333496 1C0.333496 0.509084 0.731465 0.111115 1.22239 0.111115H13.6668C14.1578 0.111115 14.5557 0.509084 14.5557 1C14.5557 1.49092 14.1578 1.88889 13.6668 1.88889H1.22239C0.731465 1.88889 0.333496 1.49092 0.333496 1ZM0.333496 5.44445C0.333496 4.95353 0.731465 4.55556 1.22239 4.55556H13.6668C14.1578 4.55556 14.5557 4.95353 14.5557 5.44445C14.5557 5.93537 14.1578 6.33334 13.6668 6.33334H1.22239C0.731465 6.33334 0.333496 5.93537 0.333496 5.44445ZM0.333496 9.88889C0.333496 9.39797 0.731465 9 1.22239 9H13.6668C14.1578 9 14.5557 9.39797 14.5557 9.88889C14.5557 10.3798 14.1578 10.7778 13.6668 10.7778H1.22239C0.731465 10.7778 0.333496 10.3798 0.333496 9.88889Z" fill="#B0BDC6"/>
</svg>
