<svg width="180" height="45" viewBox="0 0 180 45" fill="none" xmlns="http://www.w3.org/2000/svg">
<path d="M66.6131 26.8506C66.6131 27.8635 66.3684 28.744 65.879 29.492C65.3896 30.24 64.6749 30.8166 63.7349 31.2217C62.8026 31.6269 61.6684 31.8295 60.3322 31.8295C59.7418 31.8295 59.1631 31.7905 58.596 31.7126C58.0366 31.6347 57.4967 31.5217 56.9762 31.3737C56.4635 31.2178 55.9741 31.0269 55.5079 30.801V27.435C56.3159 27.7934 57.1549 28.1167 58.025 28.405C58.895 28.6933 59.7574 28.8375 60.6119 28.8375C61.2023 28.8375 61.6762 28.7595 62.0336 28.6037C62.3987 28.4479 62.6628 28.2336 62.826 27.9609C62.9891 27.6882 63.0707 27.3765 63.0707 27.0259C63.0707 26.5973 62.9269 26.2311 62.6395 25.9273C62.3521 25.6234 61.9559 25.339 61.4509 25.0741C60.9537 24.8091 60.3905 24.5247 59.7612 24.2209C59.365 24.0339 58.9339 23.8079 58.4678 23.543C58.0017 23.2703 57.5588 22.9391 57.1393 22.5495C56.7198 22.16 56.3741 21.6886 56.1022 21.1353C55.8381 20.5743 55.706 19.9043 55.706 19.1251C55.706 18.1044 55.9391 17.2317 56.4052 16.5071C56.8713 15.7824 57.5355 15.2292 58.3979 14.8474C59.2679 14.4578 60.2934 14.263 61.4742 14.263C62.3598 14.263 63.2027 14.3682 64.0029 14.5786C64.8108 14.7812 65.6537 15.0773 66.5316 15.4669L65.3663 18.2836C64.5817 17.9641 63.8786 17.7187 63.2571 17.5473C62.6356 17.368 62.0025 17.2784 61.3577 17.2784C60.9071 17.2784 60.5226 17.3525 60.2041 17.5005C59.8855 17.6408 59.6447 17.8433 59.4816 18.1083C59.3184 18.3654 59.2369 18.6654 59.2369 19.0082C59.2369 19.4134 59.3534 19.7562 59.5864 20.0367C59.8273 20.3094 60.1846 20.5743 60.6585 20.8315C61.1402 21.0886 61.7384 21.3886 62.4531 21.7314C63.3231 22.1444 64.065 22.5768 64.6788 23.0287C65.3003 23.4729 65.778 23.9988 66.1121 24.6066C66.4461 25.2065 66.6131 25.9545 66.6131 26.8506Z" fill="#07336B"/>
<path d="M72.4983 13.4099V21.5444C72.4983 22.0353 72.4789 22.5262 72.4401 23.017C72.4012 23.5079 72.3585 23.9988 72.3119 24.4897H72.3585C72.5993 24.1468 72.844 23.8079 73.0926 23.4729C73.349 23.1378 73.6209 22.8145 73.9083 22.5028L77.5557 18.529H81.5643L76.3904 24.1975L81.8789 31.5957H77.7771L74.0249 26.3013L72.4983 27.5285V31.5957H68.9442V13.4099H72.4983Z" fill="#07336B"/>
<path d="M81.4016 18.529H85.2937L87.7524 25.8805C87.8301 26.1143 87.8962 26.3519 87.9505 26.5934C88.0049 26.835 88.0515 27.0843 88.0904 27.3415C88.1292 27.5986 88.1603 27.8674 88.1836 28.1479H88.2535C88.3001 27.7271 88.3623 27.3337 88.44 26.9674C88.5254 26.6012 88.6303 26.2389 88.7546 25.8805L91.1667 18.529H94.9772L89.4654 33.2671C89.1314 34.1709 88.6963 34.9228 88.1603 35.5228C87.6243 36.1305 87.0067 36.5863 86.3075 36.8902C85.6161 37.1941 84.8548 37.346 84.0235 37.346C83.6195 37.346 83.27 37.3226 82.9747 37.2759C82.6795 37.2369 82.4271 37.1941 82.2173 37.1473V34.3189C82.3805 34.3579 82.5863 34.393 82.8349 34.4241C83.0835 34.4553 83.3438 34.4709 83.6157 34.4709C84.1128 34.4709 84.5401 34.3657 84.8975 34.1553C85.2548 33.9449 85.5539 33.6605 85.7948 33.3021C86.0356 32.9515 86.2259 32.5658 86.3657 32.145L86.5755 31.5022L81.4016 18.529Z" fill="#07336B"/>
<path d="M103.869 31.5957L99.767 18.1901H99.6622C99.6777 18.5095 99.701 18.9926 99.7321 19.6393C99.7709 20.2783 99.8059 20.96 99.837 21.6847C99.868 22.4093 99.8836 23.0638 99.8836 23.6482V31.5957H96.6557V14.5085H101.573L105.605 27.5752H105.675L109.952 14.5085H114.869V31.5957H111.502V23.5079C111.502 22.9703 111.509 22.3509 111.525 21.6496C111.548 20.9483 111.575 20.2821 111.606 19.651C111.637 19.0121 111.661 18.5329 111.676 18.2134H111.571L107.178 31.5957H103.869Z" fill="#07336B"/>
<path d="M123.784 18.2836C124.988 18.2836 126.025 18.5173 126.895 18.9848C127.766 19.4445 128.438 20.1146 128.911 20.9951C129.385 21.8756 129.622 22.9508 129.622 24.2209V25.9506H121.22C121.259 26.9558 121.558 27.7466 122.118 28.3232C122.685 28.892 123.47 29.1764 124.472 29.1764C125.303 29.1764 126.064 29.0907 126.756 28.9193C127.447 28.7479 128.158 28.4907 128.888 28.1479V30.9062C128.243 31.2256 127.567 31.4594 126.86 31.6074C126.161 31.7555 125.311 31.8295 124.309 31.8295C123.003 31.8295 121.846 31.5879 120.836 31.1049C119.834 30.6218 119.045 29.8854 118.47 28.8959C117.903 27.9064 117.62 26.6597 117.62 25.1559C117.62 23.6287 117.876 22.3586 118.389 21.3457C118.909 20.325 119.632 19.5614 120.556 19.055C121.481 18.5407 122.557 18.2836 123.784 18.2836ZM123.807 20.8198C123.116 20.8198 122.541 21.0418 122.083 21.486C121.632 21.9301 121.372 22.6275 121.302 23.578H126.29C126.282 23.0482 126.185 22.5768 125.998 22.1639C125.82 21.7509 125.548 21.4236 125.182 21.1821C124.825 20.9406 124.367 20.8198 123.807 20.8198Z" fill="#07336B"/>
<path d="M137.523 28.9894C137.912 28.9894 138.289 28.9504 138.654 28.8725C139.027 28.7946 139.396 28.6972 139.761 28.5803V31.2334C139.38 31.4048 138.906 31.5451 138.339 31.6542C137.78 31.771 137.166 31.8295 136.498 31.8295C135.721 31.8295 135.022 31.7048 134.4 31.4555C133.787 31.1984 133.301 30.7581 132.944 30.1348C132.594 29.5037 132.419 28.6271 132.419 27.5051V21.2055H130.718V19.6978L132.676 18.5056L133.701 15.7474H135.974V18.529H139.621V21.2055H135.974V27.5051C135.974 28.0037 136.113 28.3777 136.393 28.6271C136.68 28.8686 137.057 28.9894 137.523 28.9894Z" fill="#07336B"/>
<path d="M149.2 18.2836C149.379 18.2836 149.585 18.2953 149.818 18.3186C150.058 18.3342 150.253 18.3576 150.4 18.3888L150.132 21.7314C150.016 21.6925 149.849 21.6652 149.631 21.6496C149.421 21.6262 149.239 21.6145 149.084 21.6145C148.625 21.6145 148.178 21.673 147.743 21.7898C147.316 21.9067 146.932 22.0976 146.59 22.3625C146.248 22.6197 145.976 22.9625 145.774 23.391C145.58 23.8118 145.483 24.3299 145.483 24.9455V31.5957H141.929V18.529H144.62L145.145 20.7263H145.32C145.576 20.2821 145.894 19.877 146.275 19.5108C146.664 19.1368 147.103 18.8407 147.592 18.6225C148.089 18.3966 148.625 18.2836 149.2 18.2836Z" fill="#07336B"/>
<path d="M155.843 18.529V31.5957H152.289V18.529H155.843ZM154.071 13.4099C154.6 13.4099 155.054 13.5345 155.435 13.7839C155.815 14.0254 156.006 14.4812 156.006 15.1513C156.006 15.8136 155.815 16.2733 155.435 16.5304C155.054 16.7798 154.6 16.9044 154.071 16.9044C153.535 16.9044 153.077 16.7798 152.696 16.5304C152.323 16.2733 152.137 15.8136 152.137 15.1513C152.137 14.4812 152.323 14.0254 152.696 13.7839C153.077 13.5345 153.535 13.4099 154.071 13.4099Z" fill="#07336B"/>
<path d="M164.396 31.8295C163.107 31.8295 162.008 31.5957 161.099 31.1282C160.19 30.6529 159.498 29.9205 159.024 28.931C158.55 27.9414 158.314 26.6753 158.314 25.1325C158.314 23.5352 158.582 22.234 159.118 21.2288C159.661 20.2159 160.411 19.4718 161.367 18.9965C162.33 18.5212 163.445 18.2836 164.711 18.2836C165.612 18.2836 166.389 18.3732 167.042 18.5524C167.702 18.7238 168.277 18.9303 168.766 19.1718L167.717 21.9301C167.158 21.7041 166.638 21.521 166.156 21.3808C165.674 21.2327 165.193 21.1587 164.711 21.1587C164.089 21.1587 163.573 21.3068 163.161 21.6028C162.749 21.8911 162.443 22.3275 162.241 22.9119C162.039 23.4962 161.938 24.2287 161.938 25.1091C161.938 25.974 162.046 26.6908 162.264 27.2596C162.481 27.8284 162.796 28.2531 163.208 28.5336C163.619 28.8063 164.121 28.9426 164.711 28.9426C165.449 28.9426 166.105 28.8453 166.68 28.6505C167.255 28.4479 167.815 28.1674 168.358 27.809V30.8594C167.815 31.2022 167.244 31.4477 166.645 31.5957C166.055 31.7516 165.305 31.8295 164.396 31.8295Z" fill="#07336B"/>
<path d="M180 27.7155C180 28.6037 179.79 29.3556 179.371 29.9712C178.959 30.5789 178.341 31.0425 177.518 31.362C176.695 31.6736 175.669 31.8295 174.442 31.8295C173.533 31.8295 172.752 31.771 172.099 31.6542C171.455 31.5373 170.802 31.3425 170.142 31.0698V28.1245C170.849 28.444 171.606 28.7089 172.414 28.9193C173.23 29.1219 173.944 29.2232 174.558 29.2232C175.25 29.2232 175.743 29.1219 176.038 28.9193C176.341 28.7089 176.493 28.4362 176.493 28.1011C176.493 27.883 176.43 27.6882 176.306 27.5168C176.19 27.3376 175.933 27.1389 175.537 26.9207C175.141 26.6947 174.519 26.4025 173.673 26.0441C172.857 25.7013 172.185 25.3546 171.657 25.0039C171.136 24.6533 170.748 24.2403 170.491 23.765C170.243 23.282 170.118 22.6703 170.118 21.9301C170.118 20.7224 170.585 19.8146 171.517 19.2069C172.457 18.5913 173.711 18.2836 175.281 18.2836C176.089 18.2836 176.858 18.3654 177.588 18.529C178.326 18.6926 179.083 18.9537 179.86 19.3121L178.788 21.8833C178.143 21.6028 177.534 21.373 176.959 21.1938C176.392 21.0146 175.813 20.925 175.222 20.925C174.702 20.925 174.31 20.9951 174.045 21.1353C173.781 21.2756 173.649 21.4899 173.649 21.7782C173.649 21.9885 173.715 22.1755 173.847 22.3392C173.987 22.5028 174.251 22.6859 174.64 22.8885C175.036 23.0833 175.615 23.3365 176.376 23.6482C177.114 23.9521 177.755 24.2715 178.299 24.6066C178.843 24.9338 179.262 25.3429 179.557 25.8338C179.852 26.3168 180 26.9441 180 27.7155Z" fill="#07336B"/>
<path fill-rule="evenodd" clip-rule="evenodd" d="M22.4332 45C34.8228 45 44.8665 34.9264 44.8665 22.5C44.8665 10.0736 34.8228 0 22.4332 0C10.0437 0 0 10.0736 0 22.5C0 34.9264 10.0437 45 22.4332 45ZM29.4746 32.4643C30.1898 31.3635 30.5474 30.0678 30.5474 28.5772C30.5474 27.2586 30.3033 26.1578 29.8151 25.2749C29.327 24.3805 28.6288 23.6065 27.7206 22.9529C26.8238 22.2879 25.7396 21.6515 24.4682 21.0438C23.4237 20.5392 22.5496 20.0978 21.8457 19.7194C21.1532 19.341 20.631 18.9511 20.2791 18.5498C19.9385 18.137 19.7682 17.6325 19.7682 17.0362C19.7682 16.5317 19.8874 16.0903 20.1258 15.7119C20.3642 15.322 20.7162 15.0239 21.1816 14.8175C21.6471 14.5996 22.209 14.4907 22.8675 14.4907C23.8097 14.4907 24.7349 14.6226 25.6431 14.8863C25.947 14.9707 26.2642 15.0673 26.5947 15.1761C27.7879 15.5688 29.1121 15.0283 29.5894 13.8664C30.0567 12.7289 29.5399 11.4115 28.3774 11.0104C27.8186 10.8176 27.2705 10.6533 26.733 10.5176C25.5637 10.208 24.3319 10.0532 23.0377 10.0532C21.3122 10.0532 19.8137 10.3399 18.5422 10.9132C17.2821 11.475 16.3114 12.2891 15.6303 13.3555C14.9491 14.4219 14.6086 15.7061 14.6086 17.2082C14.6086 18.3549 14.8016 19.341 15.1875 20.1666C15.5849 20.9807 16.0901 21.6744 16.7031 22.2477C17.3161 22.8211 17.9632 23.3084 18.6444 23.7097C19.3255 24.0996 19.9556 24.4321 20.5345 24.7073C21.4541 25.1545 22.2771 25.573 23.0037 25.9629C23.7416 26.3527 24.3206 26.7712 24.7406 27.2184C25.1607 27.6656 25.3707 28.2045 25.3707 28.8352C25.3707 29.3512 25.2515 29.8098 25.0131 30.2112C24.7747 30.6125 24.3887 30.9278 23.8551 31.1572C23.3329 31.3865 22.6404 31.5011 21.7776 31.5011C20.5289 31.5011 19.2687 31.289 17.9973 30.8648C17.8637 30.8202 17.7306 30.775 17.598 30.7293C16.032 30.1894 14.3191 31.3063 14.3191 32.9626C14.3191 33.8364 14.8122 34.6483 15.6315 34.952C15.9044 35.0532 16.1821 35.147 16.4647 35.2335C17.2253 35.4513 18.0143 35.6176 18.8317 35.7323C19.6604 35.8469 20.5062 35.9043 21.3689 35.9043C23.3216 35.9043 24.979 35.6061 26.3413 35.0099C27.7149 34.4136 28.7594 33.5651 29.4746 32.4643Z" fill="url(#paint0_linear_23_498)"/>
<defs>
<linearGradient id="paint0_linear_23_498" x1="22.4332" y1="0" x2="22.4332" y2="45" gradientUnits="userSpaceOnUse">
<stop stop-color="#45A5EE"/>
<stop offset="1" stop-color="#0D59EF"/>
</linearGradient>
</defs>
</svg>
