<svg width="17" height="19" viewBox="0 0 17 19" fill="none" xmlns="http://www.w3.org/2000/svg">
<path d="M8.44434 2.33332C6.48066 2.33332 4.88878 3.9252 4.88878 5.88888C4.88878 7.85255 6.48066 9.44443 8.44434 9.44443C10.408 9.44443 11.9999 7.85255 11.9999 5.88888C11.9999 3.9252 10.408 2.33332 8.44434 2.33332ZM3.111 5.88888C3.111 2.94336 5.49882 0.555542 8.44434 0.555542C11.3899 0.555542 13.7777 2.94336 13.7777 5.88888C13.7777 8.83439 11.3899 11.2222 8.44434 11.2222C5.49882 11.2222 3.111 8.83439 3.111 5.88888ZM4.88878 14.7778C3.41602 14.7778 2.22211 15.9717 2.22211 17.4444C2.22211 17.9354 1.82414 18.3333 1.33322 18.3333C0.842305 18.3333 0.444336 17.9354 0.444336 17.4444C0.444336 14.9898 2.43418 13 4.88878 13H11.9999C14.4545 13 16.4443 14.9898 16.4443 17.4444C16.4443 17.9354 16.0464 18.3333 15.5554 18.3333C15.0645 18.3333 14.6666 17.9354 14.6666 17.4444C14.6666 15.9717 13.4727 14.7778 11.9999 14.7778H4.88878Z" fill="#0070D7"/>
</svg>
