<svg width="19" height="19" viewBox="0 0 19 19" fill="none" xmlns="http://www.w3.org/2000/svg">
<path d="M7.66678 2.33332C4.72126 2.33332 2.33344 4.72113 2.33344 7.66665C2.33344 10.6122 4.72126 13 7.66678 13C10.6123 13 13.0001 10.6122 13.0001 7.66665C13.0001 4.72113 10.6123 2.33332 7.66678 2.33332ZM0.555664 7.66665C0.555664 3.7393 3.73942 0.555542 7.66678 0.555542C11.5941 0.555542 14.7779 3.7393 14.7779 7.66665C14.7779 9.30995 14.2205 10.8231 13.2844 12.0272L18.0731 16.8159C18.4202 17.163 18.4202 17.7258 18.0731 18.073C17.726 18.4201 17.1631 18.4201 16.816 18.073L12.0273 13.2843C10.8232 14.2204 9.31007 14.7778 7.66678 14.7778C3.73942 14.7778 0.555664 11.594 0.555664 7.66665Z" fill="#B0BDC6"/>
</svg>
