<svg width="14" height="14" viewBox="0 0 14 14" fill="none" xmlns="http://www.w3.org/2000/svg">
<path d="M6.99967 1.66666C6.63148 1.66666 6.33301 1.96514 6.33301 2.33333C6.33301 3.4615 4.969 4.02649 4.17126 3.22875C3.91091 2.9684 3.4888 2.9684 3.22845 3.22875C2.9681 3.4891 2.96811 3.91121 3.22845 4.17156C4.02622 4.96933 3.46116 6.33333 2.33301 6.33333C1.96482 6.33333 1.66634 6.6318 1.66634 6.99999C1.66634 7.36818 1.96482 7.66666 2.33301 7.66666C3.46125 7.66666 4.0261 9.03074 3.22841 9.82843C2.96806 10.0888 2.96806 10.5109 3.22841 10.7712C3.48876 11.0316 3.91087 11.0316 4.17122 10.7712C4.96894 9.97351 6.33301 10.5384 6.33301 11.6667C6.33301 12.0349 6.63148 12.3333 6.99967 12.3333C7.36786 12.3333 7.66634 12.0349 7.66634 11.6667C7.66634 10.5385 9.03037 9.97347 9.82812 10.7712C10.0885 11.0316 10.5106 11.0316 10.7709 10.7712C11.0313 10.5109 11.0313 10.0888 10.7709 9.82842C9.97321 9.0307 10.5381 7.66666 11.6663 7.66666C12.0345 7.66666 12.333 7.36818 12.333 7C12.333 6.6318 12.0345 6.33333 11.6663 6.33333C10.5382 6.33333 9.97309 4.96936 10.7709 4.17157C11.0312 3.91122 11.0312 3.48911 10.7709 3.22876C10.5105 2.96841 10.0884 2.96841 9.82808 3.22876C9.03032 4.02652 7.66634 3.46146 7.66634 2.33333C7.66634 1.96514 7.36786 1.66666 6.99967 1.66666ZM5.00512 2.18468C5.08117 1.14953 5.9451 0.333328 6.99967 0.333328C8.05425 0.333328 8.91818 1.14953 8.99423 2.18468C9.77997 1.50651 10.968 1.54026 11.7137 2.28595C12.4594 3.03165 12.4931 4.21969 11.8149 5.00543C12.8501 5.08147 13.6663 5.94541 13.6663 7C13.6663 8.05456 12.8501 8.9185 11.815 8.99455C12.4932 9.78029 12.4594 10.9683 11.7137 11.714C10.968 12.4597 9.77998 12.4935 8.99424 11.8153C8.9182 12.8504 8.05426 13.6667 6.99967 13.6667C5.94509 13.6667 5.08115 12.8504 5.00511 11.8153C4.21937 12.4935 3.03131 12.4598 2.2856 11.714C1.5399 10.9683 1.50615 9.78029 2.18436 8.99455C1.14921 8.9185 0.333008 8.05456 0.333008 6.99999C0.333008 5.94541 1.14923 5.08147 2.1844 5.00543C1.5062 4.21969 1.53995 3.03164 2.28565 2.28594C3.03134 1.54025 4.21938 1.50649 5.00512 2.18468Z" fill="#0070D7"/>
<path d="M6.99967 5.66666C6.64605 5.66666 6.30691 5.80714 6.05687 6.05719C5.80682 6.30723 5.66634 6.64637 5.66634 7C5.66634 7.35362 5.80682 7.69276 6.05687 7.9428C6.30691 8.19285 6.64605 8.33333 6.99967 8.33333C7.3533 8.33333 7.69244 8.19285 7.94248 7.9428C8.19253 7.69276 8.33301 7.35362 8.33301 7C8.33301 6.64637 8.19253 6.30723 7.94248 6.05719C7.69244 5.80714 7.3533 5.66666 6.99967 5.66666ZM5.11406 5.11438C5.61415 4.61428 6.29243 4.33333 6.99967 4.33333C7.70692 4.33333 8.3852 4.61428 8.88529 5.11438C9.38539 5.61447 9.66634 6.29275 9.66634 7C9.66634 7.70724 9.38539 8.38552 8.88529 8.88561C8.3852 9.38571 7.70692 9.66666 6.99967 9.66666C6.29243 9.66666 5.61415 9.38571 5.11406 8.88561C4.61396 8.38552 4.33301 7.70724 4.33301 7C4.33301 6.29275 4.61396 5.61447 5.11406 5.11438Z" fill="#0070D7"/>
</svg>
