<svg width="53" height="54" viewBox="0 0 53 54" fill="none" xmlns="http://www.w3.org/2000/svg">
<circle cx="26.5" cy="27" r="26.5" fill="#EC5780"/>
<path d="M19.89 37.5V18.06H27.5985C28.9125 18.06 29.988 18.3255 30.825 18.8565C31.671 19.3785 32.2965 20.049 32.7015 20.868C33.1155 21.687 33.3225 22.533 33.3225 23.406C33.3225 24.477 33.066 25.386 32.553 26.133C32.049 26.88 31.3605 27.384 30.4875 27.645V26.97C31.7115 27.249 32.6385 27.8295 33.2685 28.7115C33.9075 29.5935 34.227 30.597 34.227 31.722C34.227 32.874 34.0065 33.882 33.5655 34.746C33.1245 35.61 32.4675 36.285 31.5945 36.771C30.7305 37.257 29.6595 37.5 28.3815 37.5H19.89ZM23.184 34.4355H27.9765C28.5435 34.4355 29.052 34.323 29.502 34.098C29.952 33.864 30.303 33.54 30.555 33.126C30.816 32.703 30.9465 32.2035 30.9465 31.6275C30.9465 31.1055 30.834 30.6375 30.609 30.2235C30.384 29.8095 30.0555 29.481 29.6235 29.238C29.1915 28.986 28.674 28.86 28.071 28.86H23.184V34.4355ZM23.184 25.8225H27.558C28.026 25.8225 28.4445 25.7325 28.8135 25.5525C29.1825 25.3725 29.475 25.107 29.691 24.756C29.907 24.405 30.015 23.973 30.015 23.46C30.015 22.785 29.799 22.2225 29.367 21.7725C28.935 21.3225 28.332 21.0975 27.558 21.0975H23.184V25.8225Z" fill="white"/>
</svg>
